<?xml version="1.0" encoding="UTF-8"?>
<svg width="264px" height="50px" viewBox="0 0 264 50" version="1.1" xmlns="http://www.w3.org/2000/svg" xmlns:xlink="http://www.w3.org/1999/xlink">
    <!-- Generator: Sketch 46.2 (44496) - http://www.bohemiancoding.com/sketch -->
    <title>Slice 1</title>
    <desc>Created with Sketch.</desc>
    <defs></defs>
    <g id="Page-1" stroke="none" stroke-width="1" fill="none" fill-rule="evenodd">
        <g id="Psyon-Logo-Copy-3">
            <polygon id="Fill-1" fill="#C9148D" points="0 11.6269054 0 34.6105541 11.4776564 23.1187973 11.4776564 11.6269054"></polygon>
            <path d="M21.0424736,0.135108108 L21.0415288,0.135108108 L11.4777374,0.135108108 L11.4777374,11.627 L21.0424736,11.627 C24.2119583,11.627 26.7813693,14.1994324 26.7813693,17.3728108 C26.7813693,20.5461892 24.2119583,23.1188919 21.0424736,23.1188919 L11.4777374,23.1188919 L11.4777374,34.6106486 L21.0424736,34.6106486 C30.5509276,34.6106486 38.2590258,26.8929459 38.2590258,17.3728108 C38.2590258,7.85267568 30.5509276,0.135108108 21.0424736,0.135108108" id="Fill-2" fill="#00A99D"></path>
            <path d="M5.39877301e-05,34.6106081 L5.39877301e-05,34.6106081 L5.39877301e-05,49.9330405 C6.33902331,49.9330405 11.4777104,44.7879054 11.4777104,38.4411486 L11.4777104,34.6106081 L11.4777104,23.1188514 L5.39877301e-05,34.6106081 Z" id="Fill-5" fill="#2B305F"></path>
            <polygon id="Fill-8" fill="#2B305F" points="0 11.627027 11.4776564 11.627027 11.4776564 0.135135135 0 0.135135135"></polygon>
            <path d="M59.6778479,15.4575811 C59.6778479,13.3420405 61.3906086,11.6269054 63.5036883,11.6269054 L74.9814798,11.6269054 C81.3204491,11.6269054 86.4591362,6.48190541 86.4591362,0.135148649 L74.9814798,0.135148649 L63.5036883,0.135148649 C55.0517742,0.135148649 48.2000564,6.99514865 48.2000564,15.4575811 C48.2000564,19.6887973 49.9129521,23.5193378 52.6823877,26.2921757 L60.7983632,18.1662297 C60.1061055,17.4729865 59.6778479,16.5152838 59.6778479,15.4575811" id="Fill-10" fill="#00A99D"></path>
            <path d="M77.6867644,31.9019595 C78.3790221,32.5952027 78.8072798,33.5527703 78.8072798,34.6106081 C78.8072798,36.7261486 77.094384,38.4411486 74.9814393,38.4411486 L59.6778074,38.4411486 C53.338838,38.4411486 48.200016,43.5862838 48.200016,49.9330405 L59.6778074,49.9330405 L74.9814393,49.9330405 C83.4333534,49.9330405 90.2850712,43.0729054 90.2850712,34.6106081 C90.2850712,30.3793919 88.5720405,26.5488514 85.8027399,23.7760135 L77.6867644,31.9019595 Z" id="Fill-11" fill="#C9148D"></path>
            <path d="M74.9814393,19.2882027 L74.9814393,19.2882027 L63.5036479,19.2882027 C62.4472429,19.2882027 61.4907153,18.8594189 60.7983227,18.1661757 L52.6823472,26.2921216 C55.4517828,29.0649595 59.2776233,30.7799595 63.5036479,30.7799595 L74.9814393,30.7799595 C76.0378442,30.7799595 76.9943718,31.2087432 77.6867644,31.9019865 L85.8027399,23.7760405 C83.0333043,21.0030676 79.2074638,19.2882027 74.9814393,19.2882027" id="Fill-12" fill="#2B305F"></path>
            <polygon id="Fill-13" fill="#00A99D" points="116.683802 22.7230676 122.419459 16.9867162 105.588514 0.135094595 97.5794344 0.135094595 97.5541951 0.135094595 97.5541951 8.15887838 116.683667 27.3119865"></polygon>
            <polygon id="Fill-14" fill="#C9148D" points="139.256491 0.147783784 122.419472 16.9867027 128.161337 22.7357568 128.161337 22.7484595 128.161472 22.7484595 128.161472 27.2992703 147.290945 8.1462973 147.290945 0.147783784"></polygon>
            <polygon id="Fill-15" fill="#2B305F" points="128.161459 22.7484054 128.161324 22.7484054 128.161324 22.7357027 122.419459 16.9866486 116.683802 22.7231351 116.683802 38.4411081 116.683667 38.4411081 116.683667 44.1870541 122.422563 49.933 128.161459 44.1870541 128.161459 38.4411081"></polygon>
            <path d="M195.100184,7.42785135 L186.984209,15.5537973 C189.407448,17.9800135 190.906282,21.3317703 190.906282,25.0340676 C190.906282,28.7363649 189.407448,32.0879865 186.984209,34.5142027 L195.100184,42.6401486 C199.600466,38.134473 202.383939,31.9097432 202.383939,25.0340676 C202.383939,18.1583919 199.600466,11.9336622 195.100184,7.42785135" id="Fill-16" fill="#C9148D"></path>
            <path d="M164.124859,25.0340946 C164.124859,17.6295 170.120061,11.6269324 177.515571,11.6269324 C181.21319,11.6269324 184.560969,13.1276081 186.984209,15.5538243 L195.100184,7.42787838 C190.599902,2.92206757 184.38281,0.135175676 177.515571,0.135175676 C163.781092,0.135175676 152.647202,11.2827432 152.647202,25.0340946 C152.647202,31.9097703 155.430675,38.1343649 159.930957,42.6401757 L168.047067,34.5142297 C165.623693,32.0881486 164.124859,28.7362568 164.124859,25.0340946" id="Fill-17" fill="#00A99D"></path>
            <path d="M177.515557,38.4411081 C173.817937,38.4411081 170.470158,36.9405676 168.047054,34.5142162 L159.930944,42.6401622 C164.431361,47.1461081 170.648318,49.933 177.515557,49.933 C184.382796,49.933 190.599888,47.1461081 195.100171,42.6401622 L186.984195,34.5142162 C184.560956,36.9405676 181.213177,38.4411081 177.515557,38.4411081" id="Fill-18" fill="#2B305F"></path>
            <path d="M214.23789,49.933 C220.576994,49.933 225.715681,44.788 225.715681,38.4411081 L225.74092,19.6696216 L214.23789,8.15245946 L214.23789,49.933 Z" id="Fill-19" fill="#00A99D"></path>
            <path d="M263.987259,0.135108108 C257.64829,0.135108108 252.509602,5.28010811 252.509602,11.627 L252.484228,30.3986216 L263.987259,41.9155135 L263.987259,0.135108108 Z" id="Fill-20" fill="#C9148D"></path>
            <polygon id="Fill-21" fill="#2B305F" points="263.974612 49.933 263.974612 41.8852973 237.397263 15.2612432 222.297569 0.135162162 214.237876 0.135162162 214.237876 8.15245946 225.740907 19.6696216 225.740907 19.668 229.561753 23.4840811 229.566747 23.4890811 229.566747 23.5001622 255.967152 49.933"></polygon>
        </g>
    </g>
</svg>